/* XPM */
static char *_699193e50a24db2a7eca105619a27a159iCbxC3RuceQ2K8[] = {
/* columns rows colors chars-per-pixel */
"32 32 9 1 ",
"  c black",
". c #3A0911",
"X c #112031",
"o c #1B2C3A",
"O c #273845",
"+ c #364A53",
"@ c #811426",
"# c #A11B31",
"$ c white",
/* pixels */
"oooooooooooooooooooooooooooooooo",
"oOOOOOOOOOOOOOOOOOOOOOOOOOOOOO+X",
"oOoOOOOOOOOOOOOoOOOOOOOOOOOOoO+X",
"oOOOOOOOOOOOOOOOOOOOOOOOOOOOOO+X",
"oOOOOOOOOOO.......OOOOOOOOOOOO+X",
"oOOOOOOOOO.@######.OOOOOOOOOOO+X",
"oOOOOOOOO.@###....#.OOOOOOOOOO+X",
"oOOOOOOO.@###.    .#.OOOOOOOOO+X",
"oOOOOOOO.@##.      .#.OOOOOOOO+X",
"oOOOOOO.@@##.      .#.OOOOOOOO+X",
"oOOOOOO.@@@#. $   $.#.OOOOOOOO+X",
"oOOOOOO.@.@#. $   $.#.OOOOOOOO+X",
"oOOOOOO.@.@#.      .@.OOOOOOOO+X",
"oOOOOOOO..@@#.     .@.OOOOOOOO+X",
"oOOOOOOOOO.@@@.   .@.OOOOOOOOO+X",
"oOoOOOOOOOO..@@...@.OOOOOOOOoO+X",
"oOOOOOOOOO.@@@#####@.OOOOOOOOO+X",
"oOOOOOOOO.@#########@.OOOOOOOO+X",
"oOOOOOOOO.@#########@.OOOOOOOO+X",
"oOOOOOOOO.###########.OOOOOOOO+X",
"oOOOOOOO.@###########.OOOOOOOO+X",
"oOOOOOOO.@######@####@.OOOOOOO+X",
"oOOOOOOO.@######@####@.OOOOOOO+X",
"oOOOOOOO.@#####@.@##@@.OOOOOOO+X",
"oOOOOOO.@@@#@#@@.@@#@@.OOOOOOO+X",
"oOOOOOO.@@@@#@@. .@@@@.OOOOOOO+X",
"oOOOOOO.@.@@@@.  .@@.@.OOOOOOO+X",
"oOOOOOOO..@.@@.   .@@.OOOOOOOO+X",
"oOoOOOOOO..O...oO ...OOOOOOOoO+X",
"oOOOOOOOOOOO  OOOO OOOOOOOOOOO+X",
"o++++++++++++ ++++ ++++++++++++X",
"oXXXXXXXXXXXX XXXX XXXXXXXXXXXXX"
};
